<svg width="175" height="151" viewBox="0 0 175 151" fill="none" xmlns="http://www.w3.org/2000/svg">
<path d="M5.05779 89.0894C10.5546 98.5603 19.2142 106.503 29.3442 111.836C39.5357 117.19 51.1044 119.964 62.4682 119.274C73.466 118.606 83.9092 114.688 92.2982 108.584C96.4989 105.534 100.202 101.891 103.216 97.8101C106.254 93.7008 108.707 89.0541 110.009 84.145C111.349 79.0879 111.475 73.3991 108.592 68.4747C105.528 63.2771 100.404 59.0117 94.744 56.2935C89.0097 53.5498 82.5416 51.8887 76.2429 52.0444C73.4476 52.115 70.6664 52.4629 68.1604 53.4881C65.9288 54.398 63.8812 55.7308 62.1646 57.3022C58.9387 60.2444 56.1578 64.5666 57.2896 69.0943C57.8733 71.4262 59.5162 73.6054 61.1365 75.4921C63.0238 77.6818 65.2332 79.6984 67.6628 81.3581C70.0593 82.9939 72.8452 84.1828 75.5356 85.2892C78.5298 86.5132 81.5892 87.5494 84.7099 88.4087C90.9429 90.1121 97.3642 91.1132 103.765 91.3394C110.015 91.563 116.41 91.1684 122.364 89.7416C128.103 88.3767 133.367 85.9183 138.044 82.7244C148.46 75.6268 155.377 65.2608 160.713 54.4831C162.094 51.6934 163.377 48.8696 164.614 46.0177C164.87 45.438 164.394 44.7034 163.767 44.4858C163.065 44.2426 162.409 44.5845 162.153 45.1643C157.394 56.1052 151.851 67.1209 142.897 75.5674C139.067 79.179 134.685 82.3146 129.756 84.6042C124.697 86.948 119.231 88.1602 113.503 88.6993C101.53 89.8339 88.9764 88.0311 77.5504 83.5736C74.9269 82.5524 72.208 81.4486 69.8309 79.9557C67.5691 78.5275 65.5522 76.751 63.7766 74.8353C62.2342 73.1613 60.5122 71.0909 59.8981 69.0456C59.3504 67.2461 59.6707 65.4877 60.4077 63.7995C62.0461 60.1086 65.7208 57.0249 69.7224 55.5031C72.0118 54.6256 74.6931 54.3669 77.2502 54.387C80.247 54.411 83.2688 54.8399 86.1842 55.6156C91.9533 57.1458 97.4623 59.8238 101.751 63.8739C103.82 65.8172 105.692 68.0511 106.89 70.5215C107.964 72.7511 108.378 75.1729 108.356 77.5424C108.304 82.4641 106.542 87.2264 104.199 91.4777C101.896 95.656 98.8844 99.4898 95.3083 102.806C88.2083 109.406 79.0075 114.115 68.912 116.037C58.5206 118.017 47.5231 116.815 37.3793 112.914C27.2724 109.025 18.2007 102.549 11.6327 94.378C10.0346 92.3877 8.60941 90.2963 7.34939 88.1261C6.52996 86.7524 4.2545 87.709 5.05779 89.0894Z" fill="#51D591" fill-opacity="0.15"/>
<path d="M171.531 53.9383C171.386 53.8386 171.258 53.7322 171.117 53.6214C171.204 53.6887 171.287 53.7671 171.374 53.8343C170.49 53.0823 169.787 52.1697 169.088 51.2835C168.347 50.3582 167.623 49.426 166.902 48.4828C166.496 47.9456 166.093 47.3974 165.69 46.8492C165.757 46.9344 165.812 47.0153 165.875 47.1114C165.406 46.4781 164.972 45.8201 164.486 45.1936C163.9 44.4207 162.868 43.9763 161.896 44.1963C161.207 44.3536 160.583 44.682 159.929 44.9381C159.336 45.1781 158.734 45.4027 158.128 45.601C157.441 45.8332 156.745 46.0501 156.057 46.2449C156.163 46.2195 156.256 46.1899 156.365 46.1534C154.471 46.6852 152.533 47.0656 150.548 47.3056C149.987 47.3713 149.415 47.4327 148.833 47.4788C148.524 47.4954 148.2 47.717 148.038 47.9456C147.859 48.181 147.774 48.5474 147.865 48.8392C147.957 49.1311 148.131 49.4264 148.428 49.6037C148.737 49.7852 149.06 49.8476 149.413 49.8217C153.071 49.5301 156.637 48.7486 159.981 47.5313C160.438 47.3677 160.886 47.1888 161.334 47.0099C161.769 46.8267 162.204 46.6061 162.666 46.4689C162.56 46.4943 162.467 46.5239 162.358 46.5603C162.48 46.5282 162.597 46.5071 162.739 46.4945C162.629 46.4935 162.516 46.5035 162.406 46.5026C162.503 46.4993 162.597 46.507 162.687 46.5259C162.573 46.4985 162.458 46.4712 162.34 46.4549C162.417 46.4694 162.503 46.4993 162.573 46.5359C162.466 46.4865 162.36 46.437 162.256 46.3765C162.339 46.4174 162.405 46.4651 162.471 46.5128C162.384 46.4455 162.301 46.3672 162.214 46.2999C162.363 46.426 162.48 46.5656 162.594 46.7163C162.527 46.6311 162.472 46.5503 162.409 46.4541C164.247 48.9857 166.068 51.524 168.103 53.9257C168.688 54.6238 169.333 55.2684 170.093 55.817C170.358 56.0078 170.775 56.0781 171.079 56.0351C171.384 55.9921 171.722 55.8122 171.875 55.5682C172.279 55.0397 172.114 54.3634 171.531 53.9383Z" fill="#51D591" fill-opacity="0.15"/>
</svg>
